<svg width="47" height="40" viewBox="0 0 47 40" fill="none" xmlns="http://www.w3.org/2000/svg">
<path fill-rule="evenodd" clip-rule="evenodd" d="M23.3333 2.9713C20.8935 1.65258 18.8872 0.857249 16.0955 0.443664C13.0997 -0.000163764 9.19144 -0.00010057 2.79659 3.14246e-06C2.69831 4.73192e-06 2.59945 6.32137e-06 2.5 6.32137e-06C1.11929 6.32137e-06 0 1.11929 0 2.50001V34.1667C0 35.5474 1.11929 36.6667 2.5 36.6667C9.26223 36.6667 12.7797 36.6737 15.3628 37.0563C17.7384 37.4083 19.3031 38.0764 22.093 39.6706C22.8616 40.1098 23.8051 40.1098 24.5737 39.6706C29.7344 36.7216 34.0387 36.6667 44.1667 36.6667C45.5474 36.6667 46.6667 35.5474 46.6667 34.1667V2.50001C46.6667 1.11929 45.5474 6.32137e-06 44.1667 6.32137e-06L43.8701 3.14246e-06C37.4752 -0.00010057 33.567 -0.000163764 30.5711 0.443664C27.7794 0.857249 25.7732 1.65258 23.3333 2.9713ZM20.8406 7.30789C18.7821 6.20419 17.3586 5.68536 15.3628 5.38968C13.1187 5.05722 10.1694 5.00831 5 5.0012V31.6674C10.1189 31.673 13.4602 31.7199 16.0955 32.1103C17.8917 32.3764 19.3628 32.8006 20.8333 33.4204V7.50001C20.8333 7.43536 20.8358 7.3713 20.8406 7.30789ZM25.8333 33.5603C30.4137 31.8407 35.0762 31.6821 41.6667 31.668V5.0012C36.4973 5.00831 33.548 5.05722 31.3039 5.38968C29.308 5.68536 27.8846 6.20419 25.8261 7.30789C25.8309 7.3713 25.8333 7.43536 25.8333 7.50001V33.5603Z" fill="#5D4B78"/>
</svg>
