<svg width="40" height="44" viewBox="0 0 40 44" fill="none" xmlns="http://www.w3.org/2000/svg">
<path d="M38.6673 33.8013L25.3781 11.657V2.68904H26.7226C27.4621 2.68904 28.0671 2.08401 28.0671 1.34452C28.0671 0.605035 27.4621 0 26.7226 0H13.2774C12.5379 0 11.9329 0.605035 11.9329 1.34452C11.9329 2.08401 12.5379 2.68904 13.2774 2.68904H14.6219V11.657L1.33265 33.8013C-1.71135 38.8728 0.638877 43.0247 6.55478 43.0247H33.4452C39.3611 43.0247 41.7113 38.8755 38.6673 33.8013ZM8.61458 26.8904L17.311 12.3965V2.68904H22.689V12.3965L31.3854 26.8904H8.61458Z" fill="#5D4B78"/>
</svg>
