<svg width="44" height="40" viewBox="0 0 44 40" fill="none" xmlns="http://www.w3.org/2000/svg">
<path d="M11.6642 30.3765L14.3766 26.9871L5.64494 20.0022L14.3766 13.0173L11.6642 9.62786L0.814731 18.3075C0.560518 18.5108 0.355294 18.7686 0.214261 19.062C0.0732283 19.3553 0 19.6767 0 20.0022C0 20.3277 0.0732283 20.649 0.214261 20.9424C0.355294 21.2357 0.560518 21.4936 0.814731 21.6969L11.6642 30.3765ZM31.7359 9.62786L29.0235 13.0173L37.7552 20.0022L29.0235 26.9871L31.7359 30.3765L42.5854 21.6969C42.8396 21.4936 43.0448 21.2357 43.1858 20.9424C43.3269 20.649 43.4001 20.3277 43.4001 20.0022C43.4001 19.6767 43.3269 19.3553 43.1858 19.062C43.0448 18.7686 42.8396 18.5108 42.5854 18.3075L31.7359 9.62786ZM28.1577 0.941738L19.4781 40L15.2403 39.0583L23.9199 0L28.1577 0.941738Z" fill="#5D4B78"/>
</svg>
