<svg width="40" height="40" viewBox="0 0 40 40" fill="none" xmlns="http://www.w3.org/2000/svg">
<path d="M18.3333 31.3183V33.3333H15V36.6667H25V33.3333H21.6667V30.2583C23.5758 29.4324 25.3122 28.254 26.785 26.785C33.2817 20.2883 33.2817 9.71333 26.785 3.21333L24.4283 5.57C29.6267 10.77 29.6267 19.2283 24.4283 24.4267C19.23 29.6233 10.77 29.6267 5.57166 24.4267L3.215 26.7833C4.76171 28.3316 6.59902 29.5592 8.62142 30.3955C10.6438 31.2318 12.8115 31.6604 15 31.6567C16.1197 31.6564 17.2364 31.543 18.3333 31.3183Z" fill="#5D4B78"/>
<path d="M5 15C5 20.515 9.485 25 15 25C20.515 25 25 20.515 25 15C25 9.485 20.515 5 15 5C9.485 5 5 9.485 5 15ZM21.6667 15C21.6667 18.6767 18.6767 21.6667 15 21.6667C11.3233 21.6667 8.33333 18.6767 8.33333 15C8.33333 11.3233 11.3233 8.33333 15 8.33333C18.6767 8.33333 21.6667 11.3233 21.6667 15Z" fill="#5D4B78"/>
</svg>
