<svg width="40" height="40" viewBox="0 0 40 40" fill="none" xmlns="http://www.w3.org/2000/svg">
<path d="M8.75016 0C9.44016 0 10.0002 0.56 10.0002 1.25V7.5H15.7502C16.0817 7.5 16.3996 7.6317 16.634 7.86612C16.8685 8.10054 17.0002 8.41848 17.0002 8.75C17.0002 9.08152 16.8685 9.39946 16.634 9.63388C16.3996 9.8683 16.0817 10 15.7502 10H10.0002V15.75C10.0002 16.0815 9.86847 16.3995 9.63405 16.6339C9.39963 16.8683 9.08169 17 8.75016 17C8.41864 17 8.1007 16.8683 7.86628 16.6339C7.63186 16.3995 7.50016 16.0815 7.50016 15.75V10H1.25016C0.918644 10 0.600702 9.8683 0.366281 9.63388C0.131861 9.39946 0.000164747 9.08152 0.000164747 8.75C0.000164747 8.41848 0.131861 8.10054 0.366281 7.86612C0.600702 7.6317 0.918644 7.5 1.25016 7.5H7.50016V1.25C7.50016 0.56 8.06017 0 8.75016 0ZM24.2502 7.5C23.9186 7.5 23.6007 7.6317 23.3663 7.86612C23.1319 8.10054 23.0002 8.41848 23.0002 8.75C23.0002 9.08152 23.1319 9.39946 23.3663 9.63388C23.6007 9.8683 23.9186 10 24.2502 10H38.7502C39.0817 10 39.3996 9.8683 39.634 9.63388C39.8685 9.39946 40.0002 9.08152 40.0002 8.75C40.0002 8.41848 39.8685 8.10054 39.634 7.86612C39.3996 7.6317 39.0817 7.5 38.7502 7.5H24.2502ZM23.0002 31.25C23.0002 30.56 23.5602 30 24.2502 30H38.7502C39.0817 30 39.3996 30.1317 39.634 30.3661C39.8685 30.6005 40.0002 30.9185 40.0002 31.25C40.0002 31.5815 39.8685 31.8995 39.634 32.1339C39.3996 32.3683 39.0817 32.5 38.7502 32.5H24.2502C23.5602 32.5 23.0002 31.94 23.0002 31.25ZM31.5002 28C32.0306 28 32.5393 27.7893 32.9144 27.4142C33.2895 27.0391 33.5002 26.5304 33.5002 26C33.5002 25.4696 33.2895 24.9609 32.9144 24.5858C32.5393 24.2107 32.0306 24 31.5002 24C30.9697 24 30.461 24.2107 30.0859 24.5858C29.7109 24.9609 29.5002 25.4696 29.5002 26C29.5002 26.5304 29.7109 27.0391 30.0859 27.4142C30.461 27.7893 30.9697 28 31.5002 28ZM33.5002 36.75C33.5002 37.2804 33.2895 37.7891 32.9144 38.1642C32.5393 38.5393 32.0306 38.75 31.5002 38.75C30.9697 38.75 30.461 38.5393 30.0859 38.1642C29.7109 37.7891 29.5002 37.2804 29.5002 36.75C29.5002 36.2196 29.7109 35.7109 30.0859 35.3358C30.461 34.9607 30.9697 34.75 31.5002 34.75C32.0306 34.75 32.5393 34.9607 32.9144 35.3358C33.2895 35.7109 33.5002 36.2196 33.5002 36.75ZM0.366165 25.134C0.131714 24.8995 -2.47035e-09 24.5816 0 24.25C2.47035e-09 23.9184 0.131714 23.6005 0.366165 23.366C0.600616 23.1315 0.9186 22.9998 1.25016 22.9998C1.58173 22.9998 1.89971 23.1315 2.13416 23.366L8.50016 29.732L14.8662 23.366C15.1006 23.1315 15.4186 22.9998 15.7502 22.9998C16.0817 22.9998 16.3997 23.1315 16.6342 23.366C16.8686 23.6005 17.0003 23.9184 17.0003 24.25C17.0003 24.5816 16.8686 24.8995 16.6342 25.134L10.2682 31.5L16.6342 37.866C16.8686 38.1005 17.0003 38.4184 17.0003 38.75C17.0003 39.0816 16.8686 39.3995 16.6342 39.634C16.3997 39.8685 16.0817 40.0002 15.7502 40.0002C15.4186 40.0002 15.1006 39.8685 14.8662 39.634L8.50016 33.268L2.13416 39.634C1.89971 39.8685 1.58173 40.0002 1.25016 40.0002C0.9186 40.0002 0.600616 39.8685 0.366165 39.634C0.131714 39.3995 0 39.0816 0 38.75C0 38.4184 0.131714 38.1005 0.366165 37.866L6.73217 31.5L0.366165 25.134Z" fill="#5D4B78"/>
</svg>
