<svg width="41" height="40" viewBox="0 0 41 40" fill="none" xmlns="http://www.w3.org/2000/svg">
<path d="M36.7506 0.115651L11.7515 7.49811C11.244 7.65752 10.8006 7.97461 10.4857 8.4033C10.1709 8.83199 10.0009 9.34994 10.0006 9.88184V30.3057C9.1819 30.107 8.34288 30.0042 7.50044 29.9994C3.35957 29.9994 0 32.2386 0 34.9997C0 37.7608 3.35957 40 7.50044 40C11.6413 40 15.0009 37.7608 15.0009 34.9997V16.7424L35.002 10.8827V25.3062C34.1835 25.1068 33.3444 25.0037 32.5019 24.9991C28.361 24.9991 25.0015 27.2383 25.0015 29.9994C25.0015 32.7605 28.361 34.9997 32.5019 34.9997C36.6428 34.9997 40.0023 32.7613 40.0023 29.9994V2.49782C40.002 2.10533 39.9092 1.71844 39.7315 1.36846C39.5539 1.01848 39.2963 0.715242 38.9797 0.483292C38.6631 0.251342 38.2963 0.0971945 37.909 0.033325C37.5218 -0.0305445 37.1249 -0.00234159 36.7506 0.115651V0.115651Z" fill="#5D4B78"/>
</svg>
