<svg width="40" height="40" viewBox="0 0 40 40" fill="none" xmlns="http://www.w3.org/2000/svg">
<path d="M38.6432 0.429049L0.428865 38.644C-0.317794 39.39 -0.0637968 40 0.99086 40H1.48219V38.334H2.11085V40H3.3415V38.334H3.9695V40H5.20082V38.334H5.82881V40H7.05947V36.868H7.68813V40H9.02212V38.334H9.65144V40H10.8821V38.334H11.5101V40H12.7414V38.334H13.3701V40H14.6007V36.868H15.2281V40H16.5634V38.334H17.1914V40H18.4227V38.334H19.0514V40H20.2813V38.334H20.9107V40H22.142V36.868H22.7693V40H24.1046V38.334H24.7326V40H25.9633V38.334H26.5926V40H27.8233V38.334H28.4513V40H29.6826V36.868H30.3106V40H31.6452V38.334H32.2739V40H33.5045V38.334H34.1332V40H35.3639V38.334H35.9912V40H37.2232V36.868H37.8518V40H38.0785C38.5873 39.9991 39.0751 39.7968 39.4352 39.4372C39.7952 39.0777 39.9982 38.5902 39.9998 38.0814V0.991044C39.9998 -0.064279 39.3885 -0.31761 38.6432 0.429049ZM31.1446 29.2254C31.143 29.7338 30.9403 30.2209 30.5809 30.5804C30.2214 30.9399 29.7343 31.1425 29.2259 31.1441H22.376C21.3207 31.1441 21.0687 30.5334 21.8133 29.7881L29.7866 21.8155C30.5326 21.0702 31.1439 21.3228 31.1439 22.3782V29.2254H31.1446Z" fill="#5D4B78"/>
</svg>
