<svg width="40" height="33" viewBox="0 0 40 33" fill="none" xmlns="http://www.w3.org/2000/svg">
<path d="M40 27.7778V28.8889C39.9988 29.9199 39.5887 30.9084 38.8597 31.6375C38.1306 32.3665 37.1421 32.7766 36.1111 32.7778H3.88889C2.85785 32.7766 1.86938 32.3665 1.14033 31.6375C0.411275 30.9084 0.00117631 29.9199 0 28.8889V27.7778C-3.26141e-09 27.5589 0.0431097 27.3422 0.126868 27.14C0.210625 26.9378 0.333391 26.754 0.488155 26.5993C0.64292 26.4445 0.826652 26.3217 1.02886 26.238C1.23107 26.1542 1.4478 26.1111 1.66667 26.1111C1.88554 26.1111 2.10226 26.1542 2.30447 26.238C2.50668 26.3217 2.69041 26.4445 2.84518 26.5993C2.99994 26.754 3.12271 26.9378 3.20647 27.14C3.29022 27.3422 3.33333 27.5589 3.33333 27.7778V28.8889C3.33333 29.0362 3.39187 29.1775 3.49605 29.2817C3.60024 29.3859 3.74155 29.4444 3.88889 29.4444H36.1111C36.2585 29.4444 36.3998 29.3859 36.504 29.2817C36.6081 29.1775 36.6667 29.0362 36.6667 28.8889V27.7778C36.6667 27.3358 36.8423 26.9118 37.1548 26.5993C37.4674 26.2867 37.8913 26.1111 38.3333 26.1111C38.7754 26.1111 39.1993 26.2867 39.5118 26.5993C39.8244 26.9118 40 27.3358 40 27.7778ZM6.29556 15.8356C7.97503 14.7966 9.94261 14.3216 11.9111 14.48C12.7333 14.5244 13.5556 14.6444 14.3556 14.84C14.3106 14.4792 14.1749 14.1356 13.9612 13.8414C13.7475 13.5472 13.4626 13.312 13.1333 13.1578C12.2561 12.7569 11.2937 12.5783 10.3311 12.6378C9.51359 12.6541 8.70721 12.8307 7.95778 13.1578C7.76196 13.2557 7.54878 13.3141 7.3304 13.3296C7.11202 13.3451 6.89273 13.3175 6.68503 13.2482C6.47734 13.179 6.28532 13.0695 6.11993 12.9261C5.95454 12.7827 5.81902 12.608 5.72111 12.4122C5.6232 12.2164 5.56482 12.0032 5.5493 11.7848C5.53378 11.5665 5.56143 11.3472 5.63066 11.1395C5.69989 10.9318 5.80935 10.7398 5.9528 10.5744C6.09624 10.409 6.27085 10.2735 6.46667 10.1756C7.64555 9.63106 8.92398 9.33528 10.2222 9.30667C11.7455 9.22556 13.2651 9.52413 14.6444 10.1756C15.6847 10.7311 16.5374 11.5821 17.0949 12.6214C17.6525 13.6606 17.8901 14.8416 17.7778 16.0156V25C17.7943 25.442 17.6345 25.8725 17.3336 26.1967C17.0327 26.521 16.6154 26.7124 16.1733 26.7289C15.7313 26.7454 15.3008 26.5856 14.9766 26.2847C14.6524 25.9838 14.4609 25.5665 14.4444 25.1244C13.5007 25.777 12.4316 26.2264 11.305 26.4441C10.1785 26.6618 9.01894 26.643 7.9 26.3889C6.79793 26.106 5.8034 25.5052 5.04023 24.6613C4.27707 23.8174 3.77897 22.7677 3.60795 21.6428C3.43693 20.5179 3.60055 19.3676 4.07843 18.335C4.55631 17.3024 5.32735 16.4332 6.29556 15.8356V15.8356ZM8.76444 23.1689C9.82077 23.2916 10.8911 23.1531 11.8814 22.7656C12.8717 22.3782 13.7518 21.7536 14.4444 20.9467V18.3333C13.5721 18.0355 12.6627 17.8598 11.7422 17.8111C10.4883 17.6913 9.22869 17.9722 8.14444 18.6133C7.71187 18.8558 7.36227 19.2229 7.14109 19.6667C6.91992 20.1106 6.8374 20.6107 6.90428 21.1021C6.97115 21.5935 7.18432 22.0534 7.51607 22.422C7.84782 22.7906 8.2828 23.0508 8.76444 23.1689V23.1689ZM22.2222 25V1.66667C22.2222 1.4478 22.2653 1.23107 22.3491 1.02886C22.4328 0.826652 22.5556 0.64292 22.7104 0.488155C22.8651 0.333391 23.0489 0.210625 23.2511 0.126867C23.4533 0.0431095 23.67 0 23.8889 0C24.1078 0 24.3245 0.0431095 24.5267 0.126867C24.7289 0.210625 24.9126 0.333391 25.0674 0.488155C25.2222 0.64292 25.3449 0.826652 25.4287 1.02886C25.5124 1.23107 25.5556 1.4478 25.5556 1.66667V12.0156C26.6374 11.0826 28.0159 10.565 29.4444 10.5556C31.3556 10.7139 33.1272 11.6192 34.3752 13.0752C35.6232 14.5312 36.2469 16.4205 36.1111 18.3333C36.2469 20.2462 35.6232 22.1354 34.3752 23.5914C33.1272 25.0474 31.3556 25.9528 29.4444 26.1111C28.0161 26.1005 26.638 25.5831 25.5556 24.6511V25C25.5556 25.2189 25.5124 25.4356 25.4287 25.6378C25.3449 25.84 25.2222 26.0237 25.0674 26.1785C24.9126 26.3333 24.7289 26.456 24.5267 26.5398C24.3245 26.6236 24.1078 26.6667 23.8889 26.6667C23.67 26.6667 23.4533 26.6236 23.2511 26.5398C23.0489 26.456 22.8651 26.3333 22.7104 26.1785C22.5556 26.0237 22.4328 25.84 22.3491 25.6378C22.2653 25.4356 22.2222 25.2189 22.2222 25V25ZM26.1111 18.3333C25.9828 19.3616 26.2586 20.3996 26.8803 21.2286C27.5021 22.0577 28.4213 22.613 29.4444 22.7778C30.4676 22.613 31.3868 22.0577 32.0086 21.2286C32.6303 20.3996 32.9061 19.3616 32.7778 18.3333C32.9061 17.305 32.6303 16.2671 32.0086 15.438C31.3868 14.609 30.4676 14.0536 29.4444 13.8889C28.4213 14.0536 27.5021 14.609 26.8803 15.438C26.2586 16.2671 25.9828 17.305 26.1111 18.3333Z" fill="#5D4B78"/>
</svg>
